# xmcd
#
# Track frame offsets: 
#        151
#        18783
#        38176
#        57450
#        76651
#        99687
#        121630
#        139258
#        155425
#        175733
#        202232
#        221020
#        240656
#        260705
#        283059
#
# Disc length: 4053 seconds
#
# Revision: 0
# Processed by: cddbd v1.5.2PL0 Copyright (c) Steve Scherf et al.
# Submitted via: ExactAudioCopyFreeDBPlugin 1.0
#
DISCID=d50fd30f
DTITLE=張學友 - 黄金时代
DYEAR=2001
DGENRE=Pop
TTITLE0=似醉还未醉
TTITLE1=爱下去
TTITLE2=当我想起你
TTITLE3=深海
TTITLE4=心如刀割
TTITLE5=她来听我的演唱会
TTITLE6=你好毒
TTITLE7=有个人
TTITLE8=我应该
TTITLE9=爱你痛到不知痛
TTITLE10=你是我的春夏秋冬
TTITLE11=二分之一
TTITLE12=认床
TTITLE13=走过1999
TTITLE14=和好不如初
EXTD=
EXTT0=
EXTT1=
EXTT2=
EXTT3=
EXTT4=
EXTT5=
EXTT6=
EXTT7=
EXTT8=
EXTT9=
EXTT10=
EXTT11=
EXTT12=
EXTT13=
EXTT14=
PLAYORDER=
